<svg version="1.2" xmlns="http://www.w3.org/2000/svg" viewBox="0 0 29 33" width="29" height="33">
	<title>sell_new-svg</title>
	<style>
		.s0 { fill: none;stroke: #000000;stroke-width: 2 } 
		.s1 { fill: none;stroke: #ffffff;stroke-linecap: round;stroke-width: 5 } 
		.s2 { fill: none;stroke: #ffffff;stroke-width: 5 } 
		.s3 { fill: none;stroke: #0fbbcf;stroke-linecap: round;stroke-width: 2 } 
	</style>
	<g id="Page-1">
		<g id="Desktop-HD-Copy">
			<g id="Group-19">
				<path id="Stroke-1" class="s0" d="m16.2 15.2c3.5 0 6.3 2.7 6.3 6 0 3.4-2.8 6.1-6.3 6.1-3.4 0-6.2-2.7-6.2-6.1 0-3.3 2.8-6 6.2-6z"/>
				<path id="Stroke-3" class="s0" d="m16.2 10.7c6.1 0 11 4.7 11 10.5 0 5.9-4.9 10.6-11 10.6-6 0-10.9-4.7-10.9-10.6 0-5.8 4.9-10.5 10.9-10.5z"/>
				<path id="Stroke-5" class="s1" d="m4.3 23.9v-15.7"/>
				<path id="Stroke-7" class="s2" d="m6.2 22.1l-1.9 1.8-2.5-2.5"/>
				<path id="Stroke-9" class="s3" d="m4.3 23.9v-15.7"/>
				<path id="Stroke-11" class="s3" d="m6.9 21.4l-2.6 2.5-2.5-2.5"/>
				<path id="Stroke-13" class="s3" d="m11.6 7.6v-4.9"/>
				<path id="Stroke-15" class="s3" d="m17.8 6.5v-5.5"/>
				<path id="Stroke-17" class="s3" d="m24.1 9.3v-5.5"/>
			</g>
		</g>
	</g>
</svg>