<svg xmlns="http://www.w3.org/2000/svg" xmlns:xlink="http://www.w3.org/1999/xlink" width="29px" height="33px" viewBox="0 0 29 33"><title>Group 19</title><g id="Page-1" stroke="none" stroke-width="1" fill="none" fill-rule="evenodd"><g id="Desktop-HD-Copy" transform="translate(-846.000000, -134.000000)"><g id="Group-19" transform="translate(847.000000, 135.000000)"><path d="M15.2444,14.1803 C18.7014,14.1803 21.5054,16.8843 21.5054,20.2203 C21.5054,23.5563 18.7014,26.2603 15.2444,26.2603 C11.7864,26.2603 8.9834,23.5563 8.9834,20.2203 C8.9834,16.8843 11.7864,14.1803 15.2444,14.1803 Z" id="Stroke-1" stroke="#000000" stroke-width="2"></path><path d="M15.2444,9.6598 C21.2964,9.6598 26.2024,14.3878 26.2024,20.2208 C26.2024,26.0528 21.2964,30.7808 15.2444,30.7808 C9.1924,30.7808 4.2864,26.0528 4.2864,20.2208 C4.2864,14.3878 9.1924,9.6598 15.2444,9.6598 Z" id="Stroke-3" stroke="#000000" stroke-width="2"></path><line x1="3.3196" y1="22.9489" x2="3.3196" y2="7.2229" id="Stroke-5" stroke="#FFFFFF" stroke-width="5" stroke-linecap="round"></line><polyline id="Stroke-7" stroke="#FFFFFF" stroke-width="5" points="5.2044 21.0641 3.3194 22.9491 0.7674 20.3971"></polyline><line x1="3.3196" y1="22.9489" x2="3.3196" y2="7.2229" id="Stroke-9" stroke="#F2951D" stroke-width="2" stroke-linecap="round"></line><polyline id="Stroke-11" stroke="#F2951D" stroke-width="2" stroke-linecap="round" points="5.8714 20.3971 3.3194 22.9491 0.7674 20.3971"></polyline><line x1="10.5686" y1="6.6442" x2="10.5686" y2="1.7032" id="Stroke-13" stroke="#F2951D" stroke-width="2" stroke-linecap="round"></line><line x1="16.8186" y1="5.5085" x2="16.8186" y2="0.0005" id="Stroke-15" stroke="#F2951D" stroke-width="2" stroke-linecap="round"></line><line x1="23.0677" y1="8.3473" x2="23.0677" y2="2.8393" id="Stroke-17" stroke="#F2951D" stroke-width="2" stroke-linecap="round"></line></g></g></g></svg>