<svg id="Layer_1" data-name="Layer 1" xmlns="http://www.w3.org/2000/svg" viewBox="0 0 15.51 15.51"><defs><style>.cls-1{fill:#f2b92c;}.cls-2{fill:#fefefe;}</style></defs><path class="cls-1" d="M8,.24A7.76,7.76,0,1,1,.24,8,7.78,7.78,0,0,1,8,.24Z" transform="translate(-0.24 -0.24)"/><path class="cls-2" d="M8,2.42l.1.1,3.22,3.22c.07.07.11.11,0,.2L10.27,7c-.1.11-.15.06-.22,0-.64-.64-1.28-1.27-1.91-1.91C8,5,8,5,7.86,5.08,7.23,5.72,6.59,6.34,6,7c-.11.11-.16.11-.27,0-.33-.35-.68-.69-1-1-.09-.09-.09-.14,0-.22L7.9,2.52Z" transform="translate(-0.24 -0.24)"/><path class="cls-2" d="M5.83,8.9,6,9l1.89,1.89c.12.12.17.11.28,0L10,9c.11-.11.17-.11.27,0l1,1c.08.08.12.13,0,.23L8.1,13.49c-.08.08-.13.07-.2,0L4.67,10.26c-.07-.07-.1-.12,0-.21L5.74,9Z" transform="translate(-0.24 -0.24)"/><path class="cls-2" d="M3.69,6.75l.1.09,1,1.06c.08.07.09.12,0,.2-.37.35-.72.71-1.07,1.07-.08.07-.12.08-.19,0L2.5,8.09C2.44,8,2.43,8,2.5,7.92c.37-.37.73-.74,1.1-1.1Z" transform="translate(-0.24 -0.24)"/><path class="cls-2" d="M8,9.27l-.1-.09L6.82,8.1c-.08-.07-.09-.12,0-.19l1.1-1.1c.07-.07.11-.08.18,0,.36.38.74.75,1.11,1.12.06.06.07.1,0,.16L8.07,9.21Z" transform="translate(-0.24 -0.24)"/><path class="cls-2" d="M13.58,8l-.1.1c-.35.36-.71.7-1.05,1.06-.09.1-.14.08-.22,0l-1-1c-.08-.08-.11-.12,0-.22q.54-.51,1.05-1c.08-.07.12-.1.21,0,.35.36.71.72,1.07,1.07A.81.81,0,0,0,13.58,8Z" transform="translate(-0.24 -0.24)"/></svg>