<svg id="Layer_1" data-name="Layer 1" xmlns="http://www.w3.org/2000/svg" viewBox="0 0 15.62 15.63"><defs><style>.cls-1{fill:#eeb70b;}.cls-2{fill:#fefefe;}</style></defs><path class="cls-1" d="M8,.21A7.82,7.82,0,1,1,.19,8,7.82,7.82,0,0,1,8,.21Z" transform="translate(-0.19 -0.21)"/><path class="cls-2" d="M11.32,6l0,0,0,0L6.05,11.31s0,0-.09,0L4.71,10.06s0,0,0-.08Q7.34,7.37,10,4.74s.06,0,.09,0L11.28,6Z" transform="translate(-0.19 -0.21)"/><path class="cls-2" d="M13.31,8l0,0,0,0L8,13.3s-.06,0-.09,0L6.71,12.06s0-.05,0-.09L8,10.69l3.93-3.95s.06,0,.1,0L13.27,8Z" transform="translate(-0.19 -0.21)"/><path class="cls-2" d="M9.33,4l0,0,0,0L6.05,7.33s-.06,0-.1,0L4.71,6.09s0,0,0-.08L8,2.75s0,0,.08,0c.42.41.84.83,1.25,1.25Z" transform="translate(-0.19 -0.21)"/><path class="cls-2" d="M4,9.36l0,0L2.72,8.07s0,0,0-.07L4,6.73s0,0,.06,0L5.31,8s0,0,0,.07L4.05,9.33S4,9.36,4,9.36Z" transform="translate(-0.19 -0.21)"/></svg>