<svg xmlns="http://www.w3.org/2000/svg" xmlns:xlink="http://www.w3.org/1999/xlink" width="29px" height="33px" viewBox="0 0 29 33"><title>Group 19</title><g id="Page-1" stroke="none" stroke-width="1" fill="none" fill-rule="evenodd"><g id="Desktop-HD-Copy" transform="translate(-1045.000000, -135.000000)"><g id="Group-19" transform="translate(1046.000000, 136.000000)"><path d="M10.9581,16.6003 C7.5001,16.6003 4.6971,13.8963 4.6971,10.5603 C4.6971,7.2253 7.5001,4.5203 10.9581,4.5203 C14.4151,4.5203 17.2191,7.2253 17.2191,10.5603 C17.2191,13.8963 14.4151,16.6003 10.9581,16.6003 Z" id="Stroke-1" stroke="#9BA2AD" stroke-width="2"></path><path d="M10.9581,21.1208 C4.9061,21.1208 0.0001,16.3928 0.0001,10.5598 C0.0001,4.7278 4.9061,-0.0002 10.9581,-0.0002 C17.0101,-0.0002 21.9161,4.7278 21.9161,10.5598 C21.9161,16.3928 17.0101,21.1208 10.9581,21.1208 Z" id="Stroke-3" stroke="#9BA2AD" stroke-width="2"></path><line x1="22.8829" y1="7.8317" x2="22.8829" y2="23.5577" id="Stroke-5" stroke="#FFFFFF" stroke-width="5" stroke-linecap="round"></line><polyline id="Stroke-7" stroke="#FFFFFF" stroke-width="5" points="20.9981 9.7165 22.8831 7.8315 25.4351 10.3835"></polyline><line x1="22.8829" y1="7.8317" x2="22.8829" y2="23.5577" id="Stroke-9" stroke="#9BA2AD" stroke-width="2" stroke-linecap="round"></line><polyline id="Stroke-11" stroke="#9BA2AD" stroke-width="2" stroke-linecap="round" points="20.3311 10.3835 22.8831 7.8315 25.4351 10.3835"></polyline><line x1="15.6329" y1="24.1364" x2="15.6329" y2="29.0764" id="Stroke-13" stroke="#9BA2AD" stroke-width="2" stroke-linecap="round"></line><line x1="9.3839" y1="25.2721" x2="9.3839" y2="30.7811" id="Stroke-15" stroke="#9BA2AD" stroke-width="2" stroke-linecap="round"></line><line x1="3.1339" y1="22.4333" x2="3.1339" y2="27.9423" id="Stroke-17" stroke="#9BA2AD" stroke-width="2" stroke-linecap="round"></line></g></g></g></svg>