<svg xmlns="http://www.w3.org/2000/svg" xmlns:xlink="http://www.w3.org/1999/xlink" width="16px" height="16px" viewBox="0 0 16 16"><title>Shape</title><g id="Page-1" stroke="none" stroke-width="1" fill="none" fill-rule="evenodd"><g id="Desktop-HD-Copy" transform="translate(-1086.000000, -353.000000)" fill="#F28F1C"><g id="currency-rupee" transform="translate(1086.000000, 353.000000)"><path d="M8,16 C12.4183,16 16,12.4183 16,8 C16,3.58172 12.4183,0 8,0 C3.58172,0 0,3.58172 0,8 C0,12.4183 3.58172,16 8,16 Z M5.00003,3 C4.44774,3 3.9999996,3.44772 3.9999996,4 C3.9999996,4.55228 4.44774,5 5.00003,5 L6.00003,5 C6.74031,5 7.38666,5.4022 7.73246,6 L5.00003,6 C4.44774,6 3.9999996,6.44772 3.9999996,7 C3.9999996,7.55228 4.44774,8 5.00003,8 L7.73246,8 C7.38665,8.5978 6.74031,9 6.00003,9 L5.00003,9 C4.59557,9 4.23093,9.2436 4.07615,9.6173 C3.92137,9.991 4.00692,10.4211 4.29292,10.7071 L7.29292,13.7071 C7.68345,14.0976 8.3166,14.0976 8.7071,13.7071 C9.0977,13.3166 9.0977,12.6834 8.7071,12.2929 L7.22363,10.8094 C8.5222,10.3926 9.5316,9.3302 9.874,8 L10.9999996,8 C11.5523,8 11.9999996,7.55228 11.9999996,7 C11.9999996,6.44772 11.5523,6 10.9999996,6 L9.874,6 C9.7827,5.64523 9.6439,5.30951 9.4649,5 L10.9999996,5 C11.5523,5 11.9999996,4.55228 11.9999996,4 C11.9999996,3.44772 11.5523,3 10.9999996,3 L5.00003,3 Z" id="Shape"></path></g></g></g></svg>