<svg xmlns="http://www.w3.org/2000/svg" xmlns:xlink="http://www.w3.org/1999/xlink" width="16px" height="16px" viewBox="0 0 16 16"><title>Group 10</title><g id="Page-1" stroke="none" stroke-width="1" fill="none" fill-rule="evenodd"><g id="Desktop-HD-Copy" transform="translate(-1086.000000, -430.000000)" fill-rule="nonzero"><g id="Group-10" transform="translate(1086.000000, 430.000000)"><circle id="Oval" fill="#26A17B" cx="7.96160063" cy="7.96160063" r="7.96160063"></circle><path d="M8.8102407,8.69632069 L8.8102407,8.69504069 C8.7552007,8.69888069 8.47104067,8.71552069 7.83872062,8.71552069 C7.33312058,8.71552069 6.97856055,8.70144069 6.85312054,8.69504069 L6.85312054,8.69632069 C4.90880039,8.61056068 3.45856027,8.27264066 3.45856027,7.86688063 C3.45856027,7.46240059 4.91008039,7.12320057 6.85312054,7.03744056 L6.85312054,8.35968066 C6.97984055,8.36864067 7.34464058,8.39040067 7.84768062,8.39040067 C8.45184067,8.39040067 8.7539207,8.36480066 8.8102407,8.35968066 L8.8102407,7.03872056 C10.7507209,7.12576057 12.197121,7.46368059 12.197121,7.86816063 C12.197121,8.27264066 10.7494409,8.61056068 8.8102407,8.69760069 M8.8102407,6.90176055 L8.8102407,5.71904045 L11.5174409,5.71904045 L11.5174409,3.91552031 L4.14720033,3.91552031 L4.14720033,5.71904045 L6.85440054,5.71904045 L6.85440054,6.90176055 C4.65408037,7.00288056 3.00032024,7.43808059 3.00032024,7.96032063 C3.00032024,8.48256067 4.65536037,8.91776071 6.85440054,9.02016072 L6.85440054,12.811521 L8.8115207,12.811521 L8.8115207,9.02016072 C11.0080009,8.91904071 12.659201,8.48384067 12.659201,7.96160063 C12.659201,7.44064059 11.0080009,7.00416056 8.8115207,6.90304055" id="Shape" fill="#FFFFFF"></path></g></g></g></svg>